PathFileType	4	(X/Y/Z)	abd.trc
DataRate	CameraRate	NumFrames	NumMarkers	Units	OrigDataRate	OrigDataStartFrame	OrigNumFrames
100.0	100.0	7	17	mm	100.0	744	1189
Frame#	Time	STER			XIPH			T10			T1			CLAV_SC			CLAV_AC			SCAP_AA			SCAP_CP			SCAP_TS			SCAP_IA			DELT			ARMl			EPICm			EPICl			LARM_elb			STYLr			STYLu		
		X1	Y1	Z1	X2	Y2	Z2	X3	Y3	Z3	X4	Y4	Z4	X5	Y5	Z5	X6	Y6	Z6	X7	Y7	Z7	X8	Y8	Z8	X9	Y9	Z9	X10	Y10	Z10	X11	Y11	Z11	X12	Y12	Z12	X13	Y13	Z13	X14	Y14	Z14	X15	Y15	Z15	X16	Y16	Z16	X17	Y17	Z17

744	7.43	399.80328369140625	90.83834075927734	1433.7763671875	394.23541259765625	139.71060180664062	1271.06494140625	381.06317138671875	-95.0390625	1242.4195556640625	380.02496337890625	-68.82188415527344	1473.014404296875	435.3880615234375	81.42179870605469	1437.6363525390625	584.384033203125	-0.5800619721412659	1453.32080078125	584.6712646484375	-47.982460021972656	1437.858154296875	529.4717407226562	-50.37518310546875	1468.85107421875	506.3847351074219	-106.36041259765625	1415.73876953125	483.4223327636719	-117.1690902709961	1275.9627685546875	635.0510864257812	-34.684410095214844	1296.294677734375	646.2319946289062	-50.69752502441406	1248.2962646484375	597.5183715820312	-35.38251876831055	1088.91650390625	686.6663208007812	-61.66719055175781	1132.98876953125	625.289794921875	-76.70591735839844	1079.561767578125	783.988037109375	95.64334106445312	929.6682739257812	720.6494140625	62.636688232421875	889.323974609375
745	7.44	399.767822265625	90.81507110595703	1433.777099609375	394.2362060546875	139.71788024902344	1271.0849609375	381.0593566894531	-95.03926849365234	1242.423828125	380.09051513671875	-68.8128433227539	1473.03466796875	435.474609375	81.44171905517578	1437.6673583984375	584.4656372070312	-0.5469346046447754	1453.1473388671875	584.8036499023438	-47.91023254394531	1437.7210693359375	529.58984375	-50.33995819091797	1468.7806396484375	506.4482421875	-106.33338165283203	1415.6551513671875	483.2059326171875	-117.169189453125	1275.990478515625	634.933837890625	-34.53849411010742	1296.0596923828125	646.14404296875	-50.50758743286133	1248.026123046875	597.592041015625	-34.952735900878906	1088.65869140625	686.1964721679688	-61.4483642578125	1132.6112060546875	624.7542114257812	-76.58483123779297	1079.321044921875	782.4027099609375	96.00199127197266	928.7952880859375	719.4771728515625	62.91289520263672	888.9072875976562
746	7.45	399.72906494140625	90.80005645751953	1433.773681640625	394.0073547363281	139.7342529296875	1271.000732421875	381.0279235839844	-95.0203857421875	1242.4329833984375	380.1424560546875	-68.79325866699219	1473.041015625	435.46612548828125	81.42642974853516	1437.6016845703125	584.5906982421875	-0.41744697093963623	1453.1356201171875	584.8590087890625	-47.89295959472656	1437.6348876953125	529.6519775390625	-50.33045959472656	1468.71875	506.5548095703125	-106.31556701660156	1415.5374755859375	483.21551513671875	-117.1639633178711	1275.9576416015625	634.8904418945312	-34.4256706237793	1295.8277587890625	645.921875	-50.37147903442383	1247.7890625	596.3270874023438	-35.24710464477539	1088.555908203125	685.7941284179688	-61.261714935302734	1132.277587890625	624.2877807617188	-76.51968383789062	1079.1063232421875	781.6778564453125	96.35269927978516	928.5078735351562	718.3821411132812	63.08286666870117	888.516357421875
747	7.46	399.75726318359375	90.79664611816406	1433.8199462890625	394.1102600097656	139.74046325683594	1271.05419921875	380.9958801269531	-95.00508117675781	1242.4505615234375	380.2303771972656	-68.81449890136719	1473.0413818359375	435.55120849609375	81.43572235107422	1438.0875244140625	584.7244262695312	-0.22472962737083435	1453.14013671875	584.9457397460938	-47.84256362915039	1437.538818359375	529.702880859375	-50.31047439575195	1468.6517333984375	506.37939453125	-106.32251739501953	1415.80322265625	483.2215881347656	-117.15816497802734	1275.9000244140625	634.6183471679688	-34.32870101928711	1295.6513671875	645.7011108398438	-50.228981018066406	1247.5186767578125	596.6190185546875	-34.77058410644531	1088.392333984375	685.437744140625	-61.07255554199219	1131.959228515625	623.8547973632812	-76.44681549072266	1078.90380859375	780.721923828125	96.7132339477539	928.1202392578125	717.493408203125	63.457786560058594	888.1881103515625
748	7.47	399.654052734375	90.75640106201172	1433.8155517578125	394.21771240234375	139.7074432373047	1271.0606689453125	380.96881103515625	-95.02030944824219	1242.453857421875	380.28021240234375	-68.81660461425781	1473.062744140625	435.999267578125	81.60108184814453	1437.722900390625	584.7625732421875	-0.21392741799354553	1452.9691162109375	585.0316772460938	-47.824546813964844	1437.4515380859375	529.8136596679688	-50.2884635925293	1468.6199951171875	506.5516357421875	-106.29378509521484	1415.492431640625	483.1416931152344	-117.13318634033203	1275.8631591796875	634.7611694335938	-34.21670913696289	1295.4630126953125	645.6535034179688	-50.10127639770508	1247.3680419921875	595.3511352539062	-35.21077346801758	1088.2762451171875	685.1461181640625	-60.907405853271484	1131.7164306640625	623.5121459960938	-76.34325408935547	1078.717529296875	779.8973388671875	97.07765197753906	927.7349243164062	716.69921875	63.60884475708008	887.8941040039062
749	7.48	399.91607666015625	90.82756805419922	1433.8211669921875	394.2297668457031	139.7036895751953	1271.0843505859375	380.9334411621094	-95.00487518310547	1242.45654296875	380.30181884765625	-68.82581329345703	1473.0604248046875	435.9447021484375	81.56391906738281	1437.6632080078125	584.7745361328125	-0.35229209065437317	1452.780517578125	585.08642578125	-47.79890060424805	1437.3929443359375	529.8920288085938	-50.265830993652344	1468.5814208984375	506.54248046875	-106.27091979980469	1415.443115234375	483.1448974609375	-117.1300048828125	1275.7100830078125	633.9500732421875	-34.252620697021484	1295.38525390625	645.4569091796875	-50.030548095703125	1247.17041015625	594.982666015625	-35.14827346801758	1088.12890625	684.9213256835938	-60.72748947143555	1131.4949951171875	623.209228515625	-76.2021713256836	1078.55712890625	779.3170776367188	97.48162078857422	927.5054931640625	716.0989379882812	63.926326751708984	887.7255249023438
750	7.49	399.8895263671875	90.80240631103516	1433.7969970703125	393.8864440917969	139.6585693359375	1271.0814208984375	380.926513671875	-95.04920196533203	1242.4913330078125	380.37103271484375	-68.83219146728516	1473.0640869140625	436.53369140625	81.96914672851562	1437.8758544921875	584.9108276367188	-0.10361223667860031	1452.9234619140625	585.1682739257812	-47.77671813964844	1437.3299560546875	530.1253662109375	-50.21271514892578	1468.497314453125	506.6124267578125	-106.25662994384766	1415.40234375	483.1402587890625	-117.13375854492188	1275.7080078125	634.5938110351562	-34.091800689697266	1295.197998046875	645.4927368164062	-49.92609405517578	1247.0750732421875	595.401611328125	-34.67210388183594	1088.0576171875	684.7529907226562	-60.56781768798828	1131.289306640625	622.963623046875	-76.04727935791016	1078.3984375	778.6251220703125	97.8741455078125	927.2673950195312	715.5681762695312	64.17939758300781	887.6185302734375
